<?xml version="1.0" encoding="UTF-8"?>
<svg id="Layer_1" xmlns="http://www.w3.org/2000/svg" version="1.1" viewBox="0 0 1024 660">
  <!-- Generator: Adobe Illustrator 29.6.1, SVG Export Plug-In . SVG Version: 2.1.1 Build 9)  -->
  <defs>
    <style>
      .st0, .st1, .st2 {
        fill: #4f46e5;
      }

      .st1, .st2, .st3, .st4 {
        fill-rule: evenodd;
      }

      .st1, .st4 {
        opacity: .3;
      }

      .st5 {
        fill: #1d2a3d;
      }

      .st3, .st4 {
        fill: #dcdafa;
      }
    </style>
  </defs>
  <g>
    <path class="st5" d="M384.42,518.67l-20.97,65.56c-2.49,8.27-5.02,17.34-7.57,27.22-1.67,6.46-3.42,13.37-5.25,20.7-1.87-7.26-3.68-14.14-5.42-20.61-2.68-9.94-5.32-19.04-7.93-27.31l-21.7-65.56h-30.91l47.6,135.86h36.38l46.5-135.86h-30.73Z"/>
    <path class="st5" d="M487.39,557.92c-7.45-4.41-16.31-6.61-26.58-6.61s-19.06,2.2-26.53,6.61c-7.48,4.41-13.24,10.55-17.28,18.42-4.04,7.87-6.06,17.1-6.06,27.67s2.02,19.62,6.06,27.49c4.04,7.87,9.8,14.01,17.28,18.42,7.48,4.41,16.32,6.61,26.53,6.61s19.13-2.2,26.58-6.61c7.45-4.41,13.19-10.55,17.23-18.42,4.04-7.87,6.06-17.04,6.06-27.49s-2.02-19.8-6.06-27.67c-4.04-7.87-9.79-14.01-17.23-18.42ZM480.41,619.83c-1.64,4.71-4.1,8.42-7.39,11.12-3.28,2.71-7.36,4.06-12.22,4.06s-8.92-1.35-12.17-4.06c-3.25-2.7-5.7-6.41-7.34-11.12-1.64-4.71-2.46-10.01-2.46-15.91s.82-11.37,2.46-16.05c1.64-4.68,4.09-8.36,7.34-11.03,3.25-2.67,7.31-4.01,12.17-4.01s8.94,1.34,12.22,4.01c3.28,2.68,5.74,6.35,7.39,11.03,1.64,4.68,2.46,10.03,2.46,16.05s-.82,11.2-2.46,15.91Z"/>
    <path class="st5" d="M590.64,611.58c0,4.5-.84,8.34-2.51,11.53-1.67,3.19-4,5.62-6.98,7.29-2.98,1.67-6.41,2.51-10.3,2.51-5.71,0-10.21-1.79-13.49-5.38-3.28-3.59-4.92-8.54-4.92-14.86v-60.09h-27.35v64.83c0,7.96,1.44,14.82,4.33,20.56,2.89,5.74,6.98,10.15,12.26,13.22,5.29,3.07,11.46,4.6,18.51,4.6,8.45,0,15.42-2.31,20.93-6.93,4.57-3.84,8.15-9.07,10.77-15.64l.31,21.29h25.9v-101.94h-27.45v58.99Z"/>
    <path class="st5" d="M699.85,624.62c-1.16,2.19-2.58,4.06-4.29,5.61-1.7,1.55-3.65,2.74-5.84,3.56s-4.59,1.23-7.2,1.23c-4.86,0-8.95-1.34-12.26-4.01-3.31-2.67-5.81-6.35-7.48-11.03-1.67-4.68-2.51-10.03-2.51-16.05s.83-11.55,2.51-16.23c1.67-4.68,4.16-8.33,7.48-10.94,3.31-2.61,7.4-3.92,12.26-3.92,2.61,0,5,.4,7.16,1.19,2.16.79,4.06,1.93,5.7,3.42,1.64,1.49,3.04,3.28,4.19,5.38,1.15,2.1,2.01,4.48,2.55,7.16l25.44-4.74c-.97-5.23-2.74-9.94-5.29-14.13-2.55-4.19-5.81-7.75-9.76-10.67-3.95-2.92-8.48-5.17-13.59-6.75-5.11-1.58-10.67-2.37-16.69-2.37-10.27,0-19.13,2.2-26.58,6.61-7.45,4.41-13.19,10.55-17.23,18.42-4.04,7.87-6.06,17.1-6.06,27.67s2.02,19.62,6.06,27.49c4.04,7.87,9.79,14.01,17.23,18.42,7.45,4.41,16.31,6.61,26.58,6.61,6.08,0,11.69-.79,16.82-2.37,5.14-1.58,9.68-3.89,13.63-6.93,3.95-3.04,7.2-6.67,9.76-10.9,2.55-4.22,4.32-9.04,5.29-14.45l-25.44-4.65c-.49,2.74-1.31,5.2-2.46,7.39Z"/>
    <path class="st5" d="M818.23,555.91c-5.26-3.07-11.41-4.6-18.46-4.6-8.63,0-15.67,2.33-21.11,6.98-4.12,3.52-7.45,8.16-9.98,13.91v-53.53h-26.81v135.86h27.35v-58.99c0-4.56.83-8.42,2.51-11.58,1.67-3.16,4.01-5.58,7.02-7.25,3.01-1.67,6.43-2.51,10.26-2.51,5.77,0,10.29,1.79,13.54,5.38,3.25,3.59,4.88,8.54,4.88,14.86v60.09h27.45v-64.83c0-7.96-1.46-14.82-4.38-20.56-2.92-5.74-7.01-10.15-12.26-13.22Z"/>
    <path class="st5" d="M932.06,564.12c-4.38-4.29-9.45-7.49-15.23-9.62-5.78-2.13-12.01-3.19-18.69-3.19-9.91,0-18.54,2.22-25.9,6.66-7.36,4.44-13.04,10.61-17.05,18.51-4.01,7.9-6.02,17.11-6.02,27.63s2.02,20.06,6.06,27.9c4.04,7.84,9.83,13.89,17.37,18.15,7.54,4.26,16.5,6.38,26.9,6.38,7.96,0,15-1.16,21.11-3.46,6.11-2.31,11.2-5.58,15.27-9.8,4.07-4.22,6.93-9.13,8.57-14.73l-24.8-4.65c-.97,2.61-2.39,4.82-4.24,6.61-1.85,1.79-4.09,3.15-6.7,4.06-2.61.91-5.53,1.37-8.75,1.37-4.74,0-8.89-1-12.45-3.01-3.56-2.01-6.32-5.02-8.3-9.03-1.79-3.63-2.76-8.04-2.93-13.22h69.72v-7.66c0-8.75-1.23-16.35-3.69-22.8-2.46-6.44-5.88-11.81-10.26-16.09ZM886.33,575.2c3.31-2.19,7.34-3.28,12.08-3.28s8.62,1.08,11.81,3.24c3.19,2.16,5.59,5.2,7.2,9.12,1.13,2.75,1.85,5.84,2.19,9.25h-43.21c.31-3.45,1.11-6.6,2.4-9.44,1.7-3.74,4.21-6.7,7.52-8.89Z"/>
    <path class="st5" d="M1016.75,551.45c-1.64-.15-3.16-.23-4.56-.23-5.71,0-10.78,1.61-15.18,4.83-4.41,3.22-7.55,7.99-9.44,14.32h-1.09v-17.78h-26.44v101.94h27.35v-57.99c0-4.25.93-7.98,2.78-11.17,1.85-3.19,4.45-5.68,7.8-7.48,3.34-1.79,7.08-2.69,11.22-2.69,2.07,0,4.25.12,6.57.36,2.31.24,4.07.58,5.29,1v-24.44c-1.22-.3-2.64-.53-4.29-.68Z"/>
  </g>
  <g>
    <path class="st0" d="M87.22,604.56c0,5.29-1.17,9.98-3.51,14.09-2.34,4.1-5.62,7.33-9.85,9.67-4.23,2.34-9.2,3.51-14.91,3.51s-10.59-1.17-14.82-3.51c-4.23-2.34-7.51-5.56-9.85-9.67-2.34-4.1-3.51-8.8-3.51-14.09v-85.89H2.97v88.17c0,9.91,2.33,18.57,6.98,25.99,4.65,7.42,11.18,13.21,19.6,17.37,8.42,4.16,18.22,6.25,29.41,6.25s21.08-2.08,29.5-6.25c8.42-4.16,14.97-9.95,19.65-17.37,4.68-7.42,7.02-16.08,7.02-25.99v-88.17h-27.9v85.89Z"/>
    <path class="st0" d="M210.71,555.91c-5.26-3.07-11.41-4.6-18.46-4.6-8.63,0-15.67,2.33-21.11,6.98-4.48,3.83-8,8.99-10.61,15.43l-.38-21.13h-25.8v101.94h27.35v-58.99c0-4.56.83-8.42,2.51-11.58,1.67-3.16,4.01-5.58,7.02-7.25,3.01-1.67,6.43-2.51,10.26-2.51,5.77,0,10.29,1.79,13.54,5.38,3.25,3.59,4.88,8.54,4.88,14.86v60.09h27.35v-64.83c0-7.96-1.44-14.82-4.33-20.56-2.89-5.74-6.96-10.15-12.22-13.22Z"/>
    <rect class="st0" x="245.93" y="552.59" width="27.35" height="101.94"/>
    <path class="st0" d="M259.61,539.27c4.13,0,7.67-1.37,10.62-4.1,2.95-2.74,4.42-6.05,4.42-9.94s-1.47-7.2-4.42-9.94c-2.95-2.74-6.49-4.1-10.62-4.1s-7.66,1.37-10.58,4.1c-2.92,2.74-4.38,6.05-4.38,9.94s1.46,7.2,4.38,9.94c2.92,2.74,6.44,4.1,10.58,4.1Z"/>
  </g>
  <path class="st1" d="M403.23,23.95l-106.7,256.57c-7.15,17.19,1.22,36.9,18.56,43.7l319.5,125.22c16.98,6.66,36.16-1.61,42.97-18.52l76.51-189.86c5.9-14.63.69-31.39-12.45-40.11L452.32,9.02c-17.42-11.56-41.06-4.36-49.08,14.93Z"/>
  <path class="st2" d="M384.12,33.66l-114.04,253.9c-7.91,17.6.81,38.2,18.95,44.81l323.94,118.01c15.66,5.7,33.12-1.04,40.86-15.79l98.94-188.48c8.21-15.64,2.74-34.96-12.46-43.99L431.47,18.7c-17.09-10.15-39.22-3.16-47.36,14.96Z"/>
  <path class="st4" d="M403.23,23.95l-106.7,256.57c-7.15,17.19,1.22,36.9,18.56,43.7l319.5,125.22c16.98,6.66,36.16-1.61,42.97-18.52l76.51-189.86c5.9-14.63.69-31.39-12.45-40.11L452.32,9.02c-17.42-11.56-41.06-4.36-49.08,14.93Z"/>
  <path class="st3" d="M689.59,257.49L425.1,118.87c-6.62-3.47-14.81-.71-17.97,6.06l-9.95,21.31c-3.01,6.45-.32,14.12,6.07,17.28l266.6,131.81c6.32,3.13,13.99.69,17.35-5.51l7.84-14.5c3.47-6.42,1.03-14.44-5.44-17.83Z"/>
  <path class="st3" d="M642.53,345.71l-268-120.97c-6.63-2.99-14.42-.02-17.38,6.62l-9.37,21.06c-2.99,6.72.14,14.57,6.93,17.41l270.79,113.05c6.36,2.66,13.7-.07,16.78-6.23l6.58-13.14c3.33-6.65.45-14.74-6.33-17.8Z"/>
</svg>