<?xml version="1.0" encoding="UTF-8"?>
<svg id="Layer_1" xmlns="http://www.w3.org/2000/svg" version="1.1" viewBox="0 0 1024 1024">
  <!-- Generator: Adobe Illustrator 29.6.1, SVG Export Plug-In . SVG Version: 2.1.1 Build 9)  -->
  <defs>
    <style>
      .st0, .st1 {
        fill: #4f46e5;
      }

      .st0, .st1, .st2, .st3 {
        fill-rule: evenodd;
      }

      .st0, .st3 {
        opacity: .3;
      }

      .st2, .st3 {
        fill: #dcdafa;
      }
    </style>
  </defs>
  <path class="st0" d="M286.67,91.24L65.17,623.68c-14.84,35.68,2.54,76.59,38.53,90.69l663.23,259.86c35.25,13.81,75.05-3.34,89.2-38.44l158.83-394.01c12.24-30.36,1.44-65.14-25.85-83.24L388.55,60.25c-36.16-23.98-85.23-9.05-101.89,30.99Z"/>
  <path class="st1" d="M246.98,111.38L10.26,638.3c-16.41,36.53,1.68,79.28,39.34,93l672.43,244.91c32.5,11.84,68.76-2.17,84.83-32.76l205.39-391.15c17.04-32.46,5.68-72.55-25.86-91.29L345.28,80.34c-35.48-21.06-81.41-6.56-98.31,31.04Z"/>
  <path class="st3" d="M286.67,91.24L65.17,623.68c-14.84,35.68,2.54,76.59,38.53,90.69l663.23,259.86c35.25,13.81,75.05-3.34,89.2-38.44l158.83-394.01c12.24-30.36,1.44-65.14-25.85-83.24L388.55,60.25c-36.16-23.98-85.23-9.05-101.89,30.99Z"/>
  <path class="st2" d="M881.09,575.89L332.05,288.21c-13.75-7.2-30.73-1.48-37.3,12.58l-20.66,44.22c-6.25,13.39-.66,29.31,12.59,35.86l553.42,273.55c13.13,6.49,29.04,1.43,36.01-11.44l16.28-30.09c7.21-13.33,2.13-29.97-11.3-37Z"/>
  <path class="st2" d="M783.41,758.97L227.09,507.92c-13.76-6.21-29.94-.04-36.07,13.73l-19.44,43.7c-6.2,13.94.29,30.25,14.38,36.13l562.11,234.62c13.21,5.51,28.43-.14,34.83-12.93l13.65-27.27c6.91-13.8.94-30.58-13.14-36.93Z"/>
</svg>